<?xml version="1.0" encoding="UTF-8"?><svg xmlns="http://www.w3.org/2000/svg" xmlns:xlink="http://www.w3.org/1999/xlink" viewBox="0 0 165.45 232.85"><defs><style>.cls-1{fill:url(#linear-gradient-2);}.cls-2{isolation:isolate;}.cls-3{fill:#d11e3c;}.cls-4{fill:#fff;stroke:#000;stroke-linecap:round;stroke-linejoin:round;stroke-width:.24px;}.cls-5{mix-blend-mode:hard-light;}.cls-6{opacity:.95;}.cls-6,.cls-7{mix-blend-mode:color;}.cls-8{fill:#8a2be2;}.cls-9{fill:url(#linear-gradient);}.cls-10{fill:none;stroke:#1e1e1e;stroke-miterlimit:10;stroke-width:.5px;}.cls-11{fill:#1e1e1e;}.cls-12{mix-blend-mode:multiply;}.cls-13{fill:#c4c4c4;}</style><linearGradient id="linear-gradient" x1="-93.7" y1="-60" x2="138.6" y2="172.3" gradientTransform="matrix(1, 0, 0, 1, 0, 0)" gradientUnits="userSpaceOnUse"><stop offset="0" stop-color="#fcee21" stop-opacity="0"/><stop offset=".1" stop-color="#fbed21" stop-opacity=".01"/><stop offset=".17" stop-color="#faed21" stop-opacity=".05"/><stop offset=".22" stop-color="#f8ec23" stop-opacity=".12"/><stop offset=".28" stop-color="#f5ea25" stop-opacity=".22"/><stop offset=".32" stop-color="#f1e827" stop-opacity=".34"/><stop offset=".37" stop-color="#ede62a" stop-opacity=".49"/><stop offset=".41" stop-color="#e7e32d" stop-opacity=".67"/><stop offset=".45" stop-color="#e1e031" stop-opacity=".88"/><stop offset=".47" stop-color="#dedf34"/><stop offset=".55" stop-color="#c5d242"/><stop offset=".7" stop-color="#86b369"/><stop offset=".93" stop-color="#2382a6"/><stop offset="1" stop-color="#0071bc"/></linearGradient><linearGradient id="linear-gradient-2" x1="5.68" y1="116.43" x2="159.76" y2="116.43" gradientTransform="matrix(1, 0, 0, 1, 0, 0)" gradientUnits="userSpaceOnUse"><stop offset="0" stop-color="#0071bc"/><stop offset=".14" stop-color="#449391"/><stop offset=".33" stop-color="#96bb5f"/><stop offset=".46" stop-color="#cad540"/><stop offset=".53" stop-color="#dedf34"/><stop offset=".55" stop-color="#e1e031"/><stop offset=".66" stop-color="#f0e828"/><stop offset=".8" stop-color="#f9ec22"/><stop offset="1" stop-color="#fcee21"/></linearGradient></defs><g class="cls-2"><g id="Layer_2"><g id="Layer_1-2"><g><g class="cls-7"><rect class="cls-9" width="165.45" height="232.85" rx="8" ry="8"/></g><g class="cls-6"><path class="cls-1" d="M152.31,9c3.56,0,6.45,2.89,6.45,6.45V217.4c0,3.56-2.89,6.45-6.45,6.45H13.13c-3.56,0-6.45-2.89-6.45-6.45V15.45c0-3.56,2.89-6.45,6.45-6.45H152.31m0-1H13.13c-4.11,0-7.45,3.34-7.45,7.45V217.4c0,4.11,3.34,7.45,7.45,7.45H152.31c4.11,0,7.45-3.34,7.45-7.45V15.45c0-4.11-3.34-7.45-7.45-7.45h0Z"/></g><g class="cls-5"><path class="cls-11" d="M27.28,115.31c0,.57-.46,1.02-1.02,1.02s-1.02-.45-1.02-1.02,.45-1.02,1.02-1.02,1.02,.46,1.02,1.02Z"/><g><g><path class="cls-8" d="M144.15,111.48c-2.12,0-3.83,1.71-3.83,3.83s1.71,3.83,3.83,3.83,3.83-1.71,3.83-3.83-1.71-3.83-3.83-3.83Z"/><g class="cls-12"><path class="cls-8" d="M144.15,111.48c-2.12,0-3.83,1.71-3.83,3.83s1.71,3.83,3.83,3.83,3.83-1.71,3.83-3.83-1.71-3.83-3.83-3.83Z"/></g><g><path class="cls-3" d="M31.05,120.53c.13,0,.25,.05,.36,.16l.94,1.03c-.73,.84-1.61,1.5-2.65,1.97-1.04,.47-2.29,.71-3.76,.71-1.28,0-2.45-.22-3.49-.66s-1.93-1.06-2.67-1.86c-.74-.8-1.31-1.76-1.71-2.87-.41-1.12-.61-2.35-.61-3.69s.22-2.57,.65-3.69c.43-1.12,1.04-2.08,1.83-2.88,.79-.8,1.73-1.43,2.82-1.87,1.1-.44,2.31-.66,3.63-.66s2.43,.2,3.38,.61c.95,.41,1.79,.96,2.53,1.65l-.78,1.1c-.06,.08-.12,.15-.2,.2-.07,.05-.18,.08-.32,.08-.11,0-.22-.04-.34-.12s-.26-.18-.43-.29c-.17-.12-.36-.24-.58-.37s-.49-.26-.79-.37c-.31-.12-.66-.21-1.07-.29s-.87-.12-1.4-.12c-.95,0-1.82,.16-2.61,.49-.79,.33-1.47,.79-2.04,1.4s-1.02,1.34-1.33,2.21c-.32,.87-.48,1.84-.48,2.92s.16,2.1,.48,2.97c.32,.87,.75,1.6,1.3,2.2s1.2,1.06,1.96,1.37,1.56,.47,2.43,.47c.53,0,1-.03,1.43-.09,.42-.06,.81-.16,1.17-.29s.7-.3,1.01-.5c.31-.2,.62-.44,.94-.73,.14-.12,.28-.19,.41-.19Z"/><path class="cls-3" d="M40.15,111.43c.75,0,1.45,.13,2.09,.38,.64,.25,1.19,.62,1.65,1.09,.46,.48,.83,1.06,1.09,1.76s.39,1.5,.39,2.39c0,.35-.04,.58-.11,.7-.07,.12-.21,.17-.42,.17h-8.37c.02,.79,.12,1.49,.32,2.07,.2,.59,.47,1.08,.82,1.47,.35,.39,.76,.69,1.24,.88,.48,.19,1.02,.29,1.61,.29,.55,0,1.03-.06,1.43-.19s.75-.27,1.04-.42c.29-.15,.53-.29,.73-.42,.19-.13,.36-.19,.5-.19,.18,0,.32,.07,.42,.21l.62,.81c-.27,.33-.6,.62-.98,.86s-.79,.44-1.22,.6-.88,.28-1.35,.35c-.46,.08-.92,.12-1.38,.12-.87,0-1.67-.15-2.4-.44-.73-.29-1.37-.72-1.9-1.29-.53-.57-.95-1.27-1.25-2.1s-.45-1.8-.45-2.88c0-.88,.13-1.7,.4-2.46,.27-.76,.66-1.42,1.16-1.98s1.12-1,1.85-1.32c.73-.32,1.55-.48,2.46-.48Zm.05,1.63c-1.07,0-1.91,.31-2.52,.93-.61,.62-.99,1.47-1.14,2.56h6.84c0-.51-.07-.98-.21-1.41s-.35-.79-.62-1.1c-.27-.31-.61-.55-1-.72-.39-.17-.84-.25-1.35-.25Z"/><path class="cls-3" d="M48.18,124.2v-12.58h1.27c.24,0,.41,.05,.5,.14,.09,.09,.15,.25,.19,.47l.15,1.96c.43-.88,.96-1.56,1.6-2.05,.63-.49,1.38-.74,2.23-.74,.35,0,.66,.04,.94,.12,.28,.08,.54,.19,.78,.33l-.29,1.65c-.06,.21-.19,.31-.38,.31-.12,0-.29-.04-.53-.12-.24-.08-.58-.12-1-.12-.77,0-1.41,.22-1.93,.67s-.95,1.1-1.3,1.95v8.01h-2.21Z"/><path class="cls-3" d="M63.17,111.43c.75,0,1.45,.13,2.09,.38,.64,.25,1.19,.62,1.65,1.09,.46,.48,.83,1.06,1.09,1.76s.39,1.5,.39,2.39c0,.35-.04,.58-.11,.7-.07,.12-.21,.17-.42,.17h-8.37c.02,.79,.12,1.49,.32,2.07,.2,.59,.47,1.08,.82,1.47,.35,.39,.76,.69,1.24,.88,.48,.19,1.02,.29,1.61,.29,.55,0,1.03-.06,1.43-.19s.75-.27,1.04-.42c.29-.15,.53-.29,.73-.42,.19-.13,.36-.19,.5-.19,.18,0,.32,.07,.42,.21l.62,.81c-.27,.33-.6,.62-.98,.86s-.79,.44-1.22,.6-.88,.28-1.35,.35c-.46,.08-.92,.12-1.38,.12-.87,0-1.67-.15-2.4-.44-.73-.29-1.37-.72-1.9-1.29-.53-.57-.95-1.27-1.25-2.1s-.45-1.8-.45-2.88c0-.88,.13-1.7,.4-2.46,.27-.76,.66-1.42,1.16-1.98s1.12-1,1.85-1.32c.73-.32,1.55-.48,2.46-.48Zm.05,1.63c-1.07,0-1.91,.31-2.52,.93-.61,.62-.99,1.47-1.14,2.56h6.84c0-.51-.07-.98-.21-1.41s-.35-.79-.62-1.1c-.27-.31-.61-.55-1-.72-.39-.17-.84-.25-1.35-.25Z"/><path class="cls-13" d="M79.77,113.86c-.07,.09-.13,.16-.2,.21-.07,.05-.16,.07-.29,.07s-.26-.05-.4-.16-.33-.22-.55-.34-.49-.24-.81-.34c-.32-.1-.71-.16-1.17-.16-.61,0-1.15,.11-1.63,.33s-.87,.54-1.19,.95c-.32,.41-.56,.91-.72,1.5s-.24,1.25-.24,1.97,.09,1.44,.26,2.03,.42,1.09,.73,1.49,.7,.71,1.15,.92,.96,.32,1.52,.32,.98-.06,1.33-.19c.35-.13,.64-.27,.87-.43s.42-.3,.57-.43c.15-.13,.3-.19,.45-.19,.19,0,.33,.07,.42,.21l.62,.81c-.55,.67-1.23,1.16-2.05,1.47-.82,.31-1.68,.47-2.59,.47-.79,0-1.52-.15-2.19-.43s-1.26-.71-1.76-1.26c-.5-.55-.89-1.23-1.17-2.03-.29-.8-.43-1.72-.43-2.74,0-.94,.13-1.8,.39-2.59,.26-.79,.64-1.48,1.14-2.05,.5-.58,1.12-1.02,1.86-1.35,.74-.32,1.58-.48,2.53-.48,.88,0,1.66,.14,2.33,.43s1.28,.69,1.8,1.21l-.58,.79Z"/><path class="cls-13" d="M82.79,124.2v-18.29h2.21v7.4c.54-.57,1.13-1.03,1.79-1.37,.65-.34,1.41-.52,2.26-.52,.69,0,1.29,.11,1.82,.34s.96,.55,1.32,.97c.35,.42,.62,.92,.8,1.51,.18,.59,.27,1.24,.27,1.95v8.01h-2.21v-8.01c0-.95-.22-1.69-.65-2.22-.43-.53-1.1-.79-1.99-.79-.65,0-1.26,.16-1.83,.47-.57,.31-1.09,.74-1.57,1.28v9.26h-2.21Z"/><path class="cls-13" d="M101.57,111.43c.75,0,1.45,.13,2.09,.38,.64,.25,1.19,.62,1.65,1.09,.46,.48,.83,1.06,1.09,1.76s.39,1.5,.39,2.39c0,.35-.04,.58-.11,.7-.07,.12-.21,.17-.42,.17h-8.37c.02,.79,.12,1.49,.32,2.07,.2,.59,.47,1.08,.82,1.47,.35,.39,.76,.69,1.24,.88,.48,.19,1.02,.29,1.61,.29,.55,0,1.03-.06,1.43-.19s.75-.27,1.04-.42c.29-.15,.53-.29,.73-.42,.19-.13,.36-.19,.5-.19,.18,0,.32,.07,.42,.21l.62,.81c-.27,.33-.6,.62-.98,.86s-.79,.44-1.22,.6-.88,.28-1.35,.35c-.46,.08-.92,.12-1.38,.12-.87,0-1.67-.15-2.4-.44-.73-.29-1.37-.72-1.9-1.29-.53-.57-.95-1.27-1.25-2.1s-.45-1.8-.45-2.88c0-.88,.13-1.7,.4-2.46,.27-.76,.66-1.42,1.16-1.98s1.12-1,1.85-1.32c.73-.32,1.55-.48,2.46-.48Zm.05,1.63c-1.07,0-1.91,.31-2.52,.93-.61,.62-.99,1.47-1.14,2.56h6.84c0-.51-.07-.98-.21-1.41s-.35-.79-.62-1.1c-.27-.31-.61-.55-1-.72-.39-.17-.84-.25-1.35-.25Z"/><path class="cls-13" d="M109.6,124.2v-12.58h1.27c.24,0,.41,.05,.5,.14,.09,.09,.15,.25,.19,.47l.15,1.96c.43-.88,.96-1.56,1.6-2.05,.63-.49,1.38-.74,2.23-.74,.35,0,.66,.04,.94,.12,.28,.08,.54,.19,.78,.33l-.29,1.65c-.06,.21-.19,.31-.38,.31-.12,0-.29-.04-.53-.12-.24-.08-.58-.12-1-.12-.77,0-1.41,.22-1.93,.67s-.95,1.1-1.3,1.95v8.01h-2.21Z"/><path class="cls-13" d="M119.61,124.2v-12.58h1.27c.24,0,.41,.05,.5,.14,.09,.09,.15,.25,.19,.47l.15,1.96c.43-.88,.96-1.56,1.6-2.05,.63-.49,1.38-.74,2.23-.74,.35,0,.66,.04,.94,.12,.28,.08,.54,.19,.78,.33l-.29,1.65c-.06,.21-.19,.31-.38,.31-.12,0-.29-.04-.53-.12-.24-.08-.58-.12-1-.12-.77,0-1.41,.22-1.93,.67s-.95,1.1-1.3,1.95v8.01h-2.21Z"/><path class="cls-13" d="M133.3,127.91c-.07,.17-.17,.3-.28,.4-.11,.1-.28,.15-.51,.15h-1.64l2.3-4.99-5.19-11.84h1.91c.19,0,.34,.05,.45,.14s.19,.2,.24,.32l3.36,7.92c.07,.18,.14,.36,.19,.55,.05,.18,.1,.37,.14,.56,.06-.19,.12-.38,.17-.56,.06-.18,.12-.37,.2-.56l3.26-7.91c.05-.13,.13-.24,.25-.33s.25-.13,.39-.13h1.76l-7.01,16.29Z"/></g></g><polygon class="cls-4" points="26.25 108.04 24.14 104.39 28.35 104.39 26.25 108.04"/></g><line class="cls-10" x1="26.26" y1="115.31" x2="140.32" y2="115.31"/></g></g></g></g></g></svg>