<?xml version="1.0" encoding="UTF-8"?><svg id="Layer_2" xmlns="http://www.w3.org/2000/svg" xmlns:xlink="http://www.w3.org/1999/xlink" viewBox="0 0 165.45 232.85"><defs><style>.cls-1{fill:url(#linear-gradient-2);}.cls-2{opacity:.7;}.cls-3{fill:#fff;}.cls-4{fill:#d11e3c;}.cls-5{opacity:.63;}.cls-6{fill:#00b71e;}.cls-7{fill:url(#linear-gradient);}</style><linearGradient id="linear-gradient" x1="-10.72" y1="22.98" x2="184.96" y2="218.66" gradientTransform="matrix(1, 0, 0, 1, 0, 0)" gradientUnits="userSpaceOnUse"><stop offset=".2" stop-color="#f7931e"/><stop offset=".27" stop-color="#f79f1a"/><stop offset=".61" stop-color="#fbd20c"/><stop offset=".86" stop-color="#fef203"/><stop offset="1" stop-color="#ff0"/></linearGradient><linearGradient id="linear-gradient-2" x1="5.68" y1="116.43" x2="159.76" y2="116.43" gradientTransform="matrix(1, 0, 0, 1, 0, 0)" gradientUnits="userSpaceOnUse"><stop offset="0" stop-color="#eadf0c"/><stop offset=".25" stop-color="#eab211"/><stop offset=".81" stop-color="#ec431f"/><stop offset="1" stop-color="#ed1c24"/></linearGradient></defs><g id="Layer_1-2"><g><g><g class="cls-2"><rect class="cls-7" width="165.45" height="232.85" rx="8" ry="8"/></g><g class="cls-2"><path class="cls-1" d="M152.31,9c3.56,0,6.45,2.89,6.45,6.45V217.4c0,3.56-2.89,6.45-6.45,6.45H13.13c-3.56,0-6.45-2.89-6.45-6.45V15.45c0-3.56,2.89-6.45,6.45-6.45H152.31m0-1H13.13c-4.11,0-7.45,3.34-7.45,7.45V217.4c0,4.11,3.34,7.45,7.45,7.45H152.31c4.11,0,7.45-3.34,7.45-7.45V15.45c0-4.11-3.34-7.45-7.45-7.45h0Z"/></g></g><g><circle class="cls-4" cx="58.47" cy="97.63" r="25.53"/><path class="cls-3" d="M37.02,92.19c-1.66,5.88-1.21,11.15,1.01,11.77,2.21,.62,.69-4.95,2.35-10.83,1.66-5.88,5.87-9.83,3.66-10.46-2.21-.62-5.35,3.63-7.01,9.51Z"/><ellipse class="cls-5" cx="56.85" cy="73.82" rx="1.57" ry=".43"/><path class="cls-6" d="M57.22,67.92c1.07,3.21-1.78,7.06,.78,6.21,2.56-.85,1.52-3.4,.44-6.61-1.07-3.23-5.94-7.28-5.46-4.65,.57,3.16,3.17,1.84,4.24,5.05Z"/><circle class="cls-4" cx="106.98" cy="136.11" r="25.53"/><path class="cls-3" d="M85.53,130.66c-1.66,5.88-1.21,11.15,1.01,11.77,2.21,.62,.69-4.95,2.35-10.83,1.66-5.88,5.87-9.83,3.66-10.46-2.21-.62-5.35,3.63-7.01,9.51Z"/><ellipse class="cls-5" cx="105.3" cy="112.33" rx="1.57" ry=".43"/><path class="cls-6" d="M105.73,106.4c1.07,3.21-1.78,7.06,.78,6.21,2.56-.85,1.52-3.4,.44-6.61-1.07-3.23-5.94-7.28-5.46-4.65,.57,3.16,3.17,1.84,4.24,5.05Z"/></g></g></g></svg>