<?xml version="1.0" encoding="UTF-8"?><svg id="Layer_2" xmlns="http://www.w3.org/2000/svg" xmlns:xlink="http://www.w3.org/1999/xlink" viewBox="0 0 165.45 232.85"><defs><style>.cls-1{fill:url(#linear-gradient-2);}.cls-2{opacity:.7;}.cls-3{fill:#fff;}.cls-4{fill:#d11e3c;}.cls-5{opacity:.63;}.cls-6{fill:#00b71e;}.cls-7{fill:url(#linear-gradient);}</style><linearGradient id="linear-gradient" x1="-.89" y1="10.81" x2="152.74" y2="204.86" gradientTransform="matrix(1, 0, 0, 1, 0, 0)" gradientUnits="userSpaceOnUse"><stop offset="0" stop-color="#eadf0c"/><stop offset=".25" stop-color="#eab211"/><stop offset=".81" stop-color="#ec431f"/><stop offset="1" stop-color="#ed1c24"/></linearGradient><linearGradient id="linear-gradient-2" x1="5.68" y1="116.43" x2="159.76" y2="116.43" gradientTransform="matrix(1, 0, 0, 1, 0, 0)" gradientUnits="userSpaceOnUse"><stop offset="0" stop-color="#ed1c24"/><stop offset=".19" stop-color="#ec431f"/><stop offset=".75" stop-color="#eab211"/><stop offset="1" stop-color="#eadf0c"/></linearGradient></defs><g id="Layer_1-2"><g><g><g class="cls-2"><rect class="cls-7" width="165.45" height="232.85" rx="8" ry="8"/></g><g><circle class="cls-4" cx="82.72" cy="115.1" r="39.83"/><path class="cls-3" d="M49.26,106.6c-2.59,9.17-1.88,17.39,1.57,18.37,3.45,.97,1.07-7.72,3.66-16.89,2.59-9.17,9.16-15.34,5.71-16.31s-8.35,5.67-10.94,14.84Z"/><ellipse class="cls-5" cx="80.28" cy="77.95" rx="2.45" ry=".67"/><path class="cls-6" d="M80.78,68.75c1.67,5.01-2.78,11.01,1.21,9.68s2.36-5.3,.69-10.32c-1.68-5.03-9.26-11.35-8.52-7.25,.9,4.93,4.94,2.87,6.61,7.88Z"/></g></g><g class="cls-2"><path class="cls-1" d="M152.31,9c3.56,0,6.45,2.89,6.45,6.45V217.4c0,3.56-2.89,6.45-6.45,6.45H13.13c-3.56,0-6.45-2.89-6.45-6.45V15.45c0-3.56,2.89-6.45,6.45-6.45H152.31m0-1H13.13c-4.11,0-7.45,3.34-7.45,7.45V217.4c0,4.11,3.34,7.45,7.45,7.45H152.31c4.11,0,7.45-3.34,7.45-7.45V15.45c0-4.11-3.34-7.45-7.45-7.45h0Z"/></g></g></g></svg>