<?xml version="1.0" encoding="UTF-8"?><svg id="Layer_2" xmlns="http://www.w3.org/2000/svg" xmlns:xlink="http://www.w3.org/1999/xlink" viewBox="0 0 165.45 232.85"><defs><style>.cls-1{fill:url(#linear-gradient-2);}.cls-2{opacity:.7;}.cls-3{fill:#666;stroke:#4c4c4c;stroke-width:.55px;}.cls-3,.cls-4,.cls-5,.cls-6,.cls-7{stroke-miterlimit:10;}.cls-4{fill:#8c8c8c;stroke:#6d6d6d;}.cls-4,.cls-6{stroke-width:.56px;}.cls-5{fill:#afafaf;stroke:#777;stroke-width:.55px;}.cls-6{fill:#777;stroke:#5b5b5b;}.cls-8{fill:#515151;}.cls-9{fill:#9b9b9b;}.cls-7{fill:none;stroke:url(#linear-gradient-5);stroke-width:1.68px;}.cls-10{fill:url(#linear-gradient-3);}.cls-11{fill:url(#linear-gradient);}.cls-12{fill:#6d6d6d;}.cls-13{fill:#5b5b5b;}.cls-14{fill:url(#linear-gradient-4);}</style><linearGradient id="linear-gradient" x1="-17.56" y1="10.86" x2="174.28" y2="212.81" gradientTransform="matrix(1, 0, 0, 1, 0, 0)" gradientUnits="userSpaceOnUse"><stop offset="0" stop-color="#eadf0c"/><stop offset=".25" stop-color="#eab211"/><stop offset=".81" stop-color="#ec431f"/><stop offset="1" stop-color="#ed1c24"/></linearGradient><linearGradient id="linear-gradient-2" x1="5.68" y1="116.43" x2="159.76" y2="116.43" gradientTransform="matrix(1, 0, 0, 1, 0, 0)" gradientUnits="userSpaceOnUse"><stop offset="0" stop-color="#ed1c24"/><stop offset=".19" stop-color="#ec431f"/><stop offset=".75" stop-color="#eab211"/><stop offset="1" stop-color="#eadf0c"/></linearGradient><linearGradient id="linear-gradient-3" x1="35.74" y1="116.43" x2="129.71" y2="116.43" gradientTransform="matrix(1, 0, 0, 1, 0, 0)" gradientUnits="userSpaceOnUse"><stop offset="0" stop-color="#000"/><stop offset="1" stop-color="#414141"/><stop offset="1" stop-color="#fff"/></linearGradient><linearGradient id="linear-gradient-4" x1="35.74" y1="116.43" x2="129.71" y2="116.43" gradientTransform="matrix(1, 0, 0, 1, 0, 0)" gradientUnits="userSpaceOnUse"><stop offset="0" stop-color="#1a1a1a"/><stop offset="1" stop-color="#666"/></linearGradient><linearGradient id="linear-gradient-5" x1="34.9" y1="116.43" x2="130.55" y2="116.43" gradientTransform="matrix(1, 0, 0, 1, 0, 0)" gradientUnits="userSpaceOnUse"><stop offset="0" stop-color="#fff"/><stop offset="0" stop-color="#979797"/><stop offset="1" stop-color="#292929"/></linearGradient></defs><g id="Layer_1-2"><g><g class="cls-2"><rect class="cls-11" width="165.45" height="232.85" rx="8" ry="8"/></g><g class="cls-2"><path class="cls-1" d="M152.31,9c3.56,0,6.45,2.89,6.45,6.45V217.4c0,3.56-2.89,6.45-6.45,6.45H13.13c-3.56,0-6.45-2.89-6.45-6.45V15.45c0-3.56,2.89-6.45,6.45-6.45H152.31m0-1H13.13c-4.11,0-7.45,3.34-7.45,7.45V217.4c0,4.11,3.34,7.45,7.45,7.45H152.31c4.11,0,7.45-3.34,7.45-7.45V15.45c0-4.11-3.34-7.45-7.45-7.45h0Z"/></g><g><rect class="cls-10" x="35.74" y="69.44" width="93.98" height="93.98"/><g><rect class="cls-14" x="35.74" y="69.44" width="93.98" height="93.98"/><rect class="cls-3" x="36.38" y="77.6" width="16.62" height="77.65"/><path class="cls-8" d="M51.06,153.15c-.16-9.17-.38-27.56-.44-36.73l-.13-36.73c2.27,.01,.63,.02,1.14,.04,0,.13,0,.4,0,.54,0,.34,0,1.36,0,1.72-.04,22.85-.15,48.24-.56,71.16h0Zm0,0c-.41-22.95-.53-48.29-.56-71.16,0-.3,0-1.41,0-1.72v-.54c.51-.01-1.13-.02,1.14-.04l-.13,36.73c-.05,9.14-.27,27.59-.44,36.73h0Z"/><g><rect class="cls-6" x="52.83" y="75.6" width="25.42" height="81.65"/><path class="cls-13" d="M75.53,155.25c-.17-9.69-.39-29.14-.45-38.82l-.14-38.82c2.33,.01,.65,.03,1.17,.04,0,.14,0,.42,0,.57,0,.35,0,1.45,0,1.82-.04,24.15-.15,50.99-.58,75.22h0Zm0,0c-.43-24.26-.54-51.05-.58-75.22,0-.31,0-1.49,0-1.82v-.57c.52-.01-1.17-.03,1.17-.04l-.14,38.82c-.05,9.66-.28,29.16-.45,38.82h0Z"/></g><g><rect class="cls-4" x="78.25" y="73.08" width="25.42" height="86.69"/><path class="cls-12" d="M101.43,157.25c-.17-10.19-.4-30.64-.46-40.82l-.14-40.82c2.39,.01,.66,.03,1.2,.04,0,.14,0,.45,0,.6,0,.37,0,1.52,0,1.91-.04,25.39-.16,53.62-.59,79.09h0Zm0,0c-.44-25.51-.56-53.67-.59-79.09,0-.33,0-1.57,0-1.91v-.6c.53-.01-1.2-.03,1.2-.04l-.14,40.82c-.06,10.16-.29,30.66-.46,40.82h0Z"/></g><rect class="cls-5" x="103.67" y="71.75" width="25.42" height="89.36"/><path class="cls-9" d="M126.38,159.01c-.18-10.63-.41-31.96-.47-42.59l-.14-42.59c2.44,.01,.68,.03,1.22,.04,0,.15,0,.47,0,.62,0,.38,0,1.59,0,2-.04,26.49-.16,55.93-.61,82.51h0Zm0,0c-.45-26.61-.57-55.99-.61-82.51,0-.34,0-1.64,0-2v-.62c.55-.01-1.22-.03,1.22-.04l-.14,42.59c-.06,10.6-.29,31.99-.47,42.59h0Z"/><rect class="cls-7" x="35.74" y="69.44" width="93.98" height="93.98"/></g></g></g></g></svg>