<?xml version="1.0" encoding="UTF-8"?><svg id="Layer_2" xmlns="http://www.w3.org/2000/svg" xmlns:xlink="http://www.w3.org/1999/xlink" viewBox="0 0 165.45 232.85"><defs><style>.cls-1{fill:url(#linear-gradient-2);}.cls-2{fill:#727272;}.cls-3{fill:#161616;opacity:.33;}.cls-4{fill:#ba4c15;}.cls-5{fill:#4c2e05;}.cls-6{fill:#d85a23;}.cls-7{fill:url(#linear-gradient);}.cls-8{fill:#c4c4c4;}.cls-9{opacity:.71;}</style><linearGradient id="linear-gradient" x1="165.85" y1="232.58" x2="3.29" y2="5.43" gradientTransform="matrix(1, 0, 0, 1, 0, 0)" gradientUnits="userSpaceOnUse"><stop offset="0" stop-color="#8cc63f"/><stop offset=".46" stop-color="#c2d422"/><stop offset=".83" stop-color="#eadf0c"/></linearGradient><linearGradient id="linear-gradient-2" x1="158.42" y1="222.2" x2="7.03" y2="10.66" gradientTransform="matrix(1, 0, 0, 1, 0, 0)" gradientUnits="userSpaceOnUse"><stop offset=".17" stop-color="#eadf0c"/><stop offset=".54" stop-color="#c2d422"/><stop offset="1" stop-color="#8cc63f"/></linearGradient></defs><g id="Layer_1-2"><g><g class="cls-9"><rect class="cls-7" width="165.45" height="232.85" rx="8" ry="8"/></g><g class="cls-9"><path class="cls-1" d="M152.31,8.93c3.59,0,6.52,2.92,6.52,6.52V217.4c0,3.59-2.92,6.52-6.52,6.52H13.13c-3.59,0-6.52-2.92-6.52-6.52V15.45c0-3.59,2.92-6.52,6.52-6.52H152.31m0-.93H13.13c-4.11,0-7.45,3.34-7.45,7.45V217.4c0,4.11,3.34,7.45,7.45,7.45H152.31c4.11,0,7.45-3.34,7.45-7.45V15.45c0-4.11-3.34-7.45-7.45-7.45h0Z"/></g><g><rect class="cls-4" x="76.46" y="148.4" width="12.53" height="16.74" transform="translate(165.45 313.54) rotate(180)"/><polygon class="cls-8" points="65.16 103.23 73.94 86.8 80.96 71.51 82.72 67.71 84.47 71.51 91.54 86.8 100.32 103.23 99.54 106.41 92.32 137.62 73.16 137.62 65.89 106.41 65.16 103.23"/><path class="cls-2" d="M82.72,138.53c-.79-12.99-.79-26.18,0-39.17,.79,12.99,.79,26.18,0,39.17h0Z"/><polygon class="cls-6" points="56.39 148.4 49.26 135.87 116.19 135.87 109.06 148.4 56.39 148.4"/><path class="cls-5" d="M87.7,149.12c-3.32,.31-6.64,.31-9.96,0,3.32-.31,6.64-.31,9.96,0h0Z"/></g><ellipse class="cls-3" cx="82.74" cy="174.5" rx="8.59" ry="1.09"/></g></g></svg>