<?xml version="1.0" encoding="UTF-8"?><svg xmlns="http://www.w3.org/2000/svg" xmlns:xlink="http://www.w3.org/1999/xlink" viewBox="0 0 165.45 232.85"><defs><style>.cls-1{fill:url(#linear-gradient-2);}.cls-2{opacity:.7;}.cls-3{fill:#682209;stroke:url(#linear-gradient-3);stroke-miterlimit:10;stroke-width:1.67px;}.cls-4{isolation:isolate;}.cls-5{filter:url(#drop-shadow-1);}.cls-6{mix-blend-mode:color-dodge;}.cls-7{fill:#e2dfcf;}.cls-8{mix-blend-mode:overlay;}.cls-9{fill:url(#linear-gradient);}</style><linearGradient id="linear-gradient" x1="-10.72" y1="22.98" x2="184.96" y2="218.66" gradientTransform="matrix(1, 0, 0, 1, 0, 0)" gradientUnits="userSpaceOnUse"><stop offset=".2" stop-color="#f7931e"/><stop offset=".27" stop-color="#f79f1a"/><stop offset=".61" stop-color="#fbd20c"/><stop offset=".86" stop-color="#fef203"/><stop offset="1" stop-color="#ff0"/></linearGradient><linearGradient id="linear-gradient-2" x1="5.68" y1="116.43" x2="159.76" y2="116.43" gradientTransform="matrix(1, 0, 0, 1, 0, 0)" gradientUnits="userSpaceOnUse"><stop offset="0" stop-color="#eadf0c"/><stop offset=".25" stop-color="#eab211"/><stop offset=".81" stop-color="#ec431f"/><stop offset="1" stop-color="#ed1c24"/></linearGradient><linearGradient id="linear-gradient-3" x1="35.04" y1="116.43" x2="130.41" y2="116.43" gradientTransform="matrix(1, 0, 0, 1, 0, 0)" gradientUnits="userSpaceOnUse"><stop offset="0" stop-color="#fff"/><stop offset="0" stop-color="#979797"/><stop offset="1" stop-color="#292929"/></linearGradient><filter id="drop-shadow-1" filterUnits="userSpaceOnUse"><feOffset dx="0" dy="4.46"/><feGaussianBlur result="blur" stdDeviation="4.46"/><feFlood flood-color="#842909" flood-opacity=".5"/><feComposite in2="blur" operator="in"/><feComposite in="SourceGraphic"/></filter></defs><g class="cls-4"><g id="Layer_2"><g id="Layer_1-2"><g><g><g class="cls-2"><rect class="cls-9" width="165.45" height="232.85" rx="8" ry="8"/></g><g class="cls-2"><path class="cls-1" d="M152.31,9c3.56,0,6.45,2.89,6.45,6.45V217.4c0,3.56-2.89,6.45-6.45,6.45H13.13c-3.56,0-6.45-2.89-6.45-6.45V15.45c0-3.56,2.89-6.45,6.45-6.45H152.31m0-1H13.13c-4.11,0-7.45,3.34-7.45,7.45V217.4c0,4.11,3.34,7.45,7.45,7.45H152.31c4.11,0,7.45-3.34,7.45-7.45V15.45c0-4.11-3.34-7.45-7.45-7.45h0Z"/></g></g><g><rect class="cls-3" x="35.88" y="69.58" width="93.7" height="93.7"/><image class="cls-8" width="800" height="800" transform="translate(128.79 162.49) rotate(-180) scale(.12)" xlink:href="../../../../Espadinha Game/textura.jpg"/><g class="cls-5"><path class="cls-7" d="M86.82,117.94c.38,1.15,.73,2.25,1.12,3.33,.11,.31,.31,.59,.5,.87,.35,.5,.72,.98,1.07,1.45-.39,.45-.77,.43-1.1-.03-.88-1.23-1.76-2.46-2.64-3.69-.73-1.02-1.45-2.04-2.19-3.05-.27-.37-.28-.67,0-1.06,1.59-2.2,3.17-4.42,4.75-6.64,.46-.65,.9-.64,1.4,.15-.09,.05-.21,.1-.31,.19-.66,.58-1.18,1.24-1.37,2.12-.03,.14-.11,.27-.19,.39-.46,.71-.75,1.47-.72,2.34,.02,.52-.09,.6-.6,.6-.85,.01-1.49,.64-1.5,1.49,0,.85,.64,1.51,1.51,1.53,.13,0,.25,.01,.28,.01Z"/><path class="cls-7" d="M88.9,115.12c.77,0,1.54,0,2.31,0,.74,0,1.33,.55,1.34,1.26,.01,.73-.57,1.32-1.33,1.32-1.54,0-3.08,0-4.63,0-.76,0-1.35-.58-1.34-1.31,0-.71,.59-1.27,1.33-1.27,.77,0,1.54,0,2.31,0Z"/><path class="cls-7" d="M90.24,114.91c.11-.61,.22-1.19,.33-1.76,.02-.09,.08-.18,.14-.25,.28-.33,.57-.65,.88-1,.04,.05,.12,.12,.18,.21,.89,1.24,1.78,2.49,2.67,3.73,.2,.28,.25,.56,.05,.84-1.02,1.42-2.04,2.84-3.06,4.25,0,0-.03,.01,.03-.01-.34-.53-.73-1.03-.97-1.58-.17-.41-.15-.9-.22-1.4,.33,0,.64,0,.96,0,.9,0,1.55-.66,1.53-1.54-.01-.86-.66-1.48-1.55-1.48-.34,0-.69,0-.98,0Z"/><path class="cls-7" d="M91.77,107.63c-.24,.88-.32,1.69-.18,2.53,.17,1.01-.26,1.84-.99,2.53-1.43-1.55-1.01-4.02,.83-4.92,.09-.04,.18-.07,.34-.13Z"/><path class="cls-7" d="M91.93,110.82c-.13-.92-.26-1.77-.07-2.65,.16-.76,.57-1.25,1.25-1.55,.34-.15,.7-.25,1.18-.41-.11,.24-.19,.36-.23,.48-.19,.63-.42,1.26-.55,1.91-.19,.98-.68,1.71-1.59,2.23Z"/><path class="cls-7" d="M100.56,124.21c-.43,.78-.78,1.49-1.2,2.16-.62,.99-1.57,1.09-2.61,.84-.15-.04-.3-.09-.52-.16,.14-.1,.25-.15,.33-.23,.5-.48,1.04-.93,1.48-1.45,.64-.77,1.41-1.15,2.52-1.15Z"/><path class="cls-7" d="M99.04,127.14c.28-.36,.57-.65,.78-.99,.22-.35,.4-.74,.55-1.13,.31-.85,1.24-1.63,2.12-1.68-.21,.81-.39,1.61-.63,2.4-.29,.98-1.08,1.3-2,1.4-.25,.03-.51,0-.81,0Z"/><path class="cls-7" d="M89.31,122.75c.86,.22,1.7,.22,2.58,.08,.91-.15,1.68,.23,2.42,.96-.9,.26-1.67,.51-2.47,.7-.73,.17-1.38-.04-1.87-.64-.26-.32-.5-.67-.74-1l.08-.1Z"/><path class="cls-7" d="M93.6,126.2c.92-.22,1.66-.72,2.4-1.28,.69-.53,1.52-.55,2.34-.34l.09,.14c-.65,.63-1.29,1.27-1.96,1.88-.44,.4-.99,.49-1.55,.29-.45-.16-.89-.36-1.34-.55l.02-.13Z"/><path class="cls-7" d="M102.39,106.67c-.86,.21-1.6,.64-2.3,1.18-.71,.55-1.57,.63-2.59,.31,.73-.69,1.37-1.32,2.04-1.92,.54-.48,1.17-.46,1.8-.21,.37,.15,.73,.34,1.09,.51l-.03,.12Z"/><path class="cls-7" d="M99.74,108.35c.61-.39,1.16-.81,1.76-1.12,1.39-.7,2.14-.44,3.36,.94-.33,0-.6-.05-.85,0-.53,.12-1.08,.24-1.58,.45-.9,.36-1.91,.29-2.69-.29Z"/><path class="cls-7" d="M104.1,121.91c0,.92,.02,1.78,0,2.65-.02,.77-.49,1.25-1.16,1.55-.35,.16-.72,.27-1.19,.44,.17-.38,.31-.62,.39-.88,.14-.45,.29-.91,.34-1.38,.1-.96,.54-1.7,1.33-2.24,.08-.05,.17-.08,.3-.13Z"/><path class="cls-7" d="M96.33,124.49c-.81,.47-1.51,.93-2.25,1.31-.75,.39-1.47,.21-2.11-.28-.27-.21-.52-.45-.78-.67,.69-.15,1.36-.28,2.01-.45,.43-.11,.84-.33,1.28-.39,.61-.09,1.21,.05,1.85,.48Z"/><path class="cls-7" d="M101.73,109.13c.94-.33,1.79-.76,2.79-.75,.56,0,1,.17,1.36,.56,.32,.36,.59,.76,.84,1.2-.93-.2-1.8-.18-2.71-.06-.87,.12-1.63-.29-2.27-.94Z"/><path class="cls-7" d="M106.01,118.04c.47,.84,.92,1.59,1.32,2.37,.35,.68,.19,1.33-.24,1.92-.23,.32-.51,.61-.82,.89,.01-.97-.3-1.83-.64-2.7-.31-.8-.15-1.62,.38-2.48Z"/><path class="cls-7" d="M99.77,105.84c-.86,.43-1.46,1.12-2.05,1.85-.52,.64-1.3,.9-2.17,.86,.38-1.06,.81-2.06,1.71-2.74,.26-.2,.67-.29,1.01-.29,.49,0,.99,.11,1.48,.18l.02,.14Z"/><path class="cls-7" d="M87.94,120.3c.83,.5,1.73,.69,2.68,.79,.73,.08,1.51,.76,1.87,1.52-.94,0-1.86,.02-2.77,0-.62-.02-1.06-.39-1.33-.92-.21-.42-.36-.87-.54-1.3l.09-.07Z"/><path class="cls-7" d="M105.29,120.14c.23,.73,.47,1.42,.65,2.13,.39,1.5-.49,2.29-1.6,2.81,0-.74,.1-1.52,0-2.28-.12-.99,.13-1.81,.77-2.53,.04-.04,.09-.07,.17-.13Z"/><path class="cls-7" d="M96.97,105.73c-.65,.65-1.07,1.37-1.41,2.18-.35,.85-1.07,1.32-2.11,1.57,.29-.97,.48-1.85,.82-2.66,.41-.96,1.58-1.4,2.69-1.1Z"/><path class="cls-7" d="M105.76,113.93c.38,.16,.72,.26,1.02,.42,.41,.22,.82,.45,1.18,.73,.95,.77,1.16,1.89,.59,3.04-.22-.31-.42-.64-.67-.91-.31-.32-.66-.61-1.01-.89-.77-.61-1.11-1.41-1.11-2.39Z"/><path class="cls-7" d="M106.25,116c.59,.59,1.19,1.17,1.75,1.78,.61,.66,.57,1.42,.24,2.19-.12,.29-.29,.56-.48,.92-.1-.28-.14-.47-.23-.64-.3-.54-.58-1.1-.94-1.6-.59-.8-.69-1.66-.49-2.58l.14-.08Z"/><path class="cls-7" d="M107.96,112.64c-.8-.5-1.68-.67-2.59-.81-.83-.13-1.44-.68-1.91-1.51,.98,0,1.86-.03,2.75,0,.72,.03,1.16,.5,1.44,1.11,.17,.36,.28,.75,.42,1.12l-.11,.09Z"/><path class="cls-7" d="M104.95,111.89c.88,.27,1.76,.52,2.62,.81,.58,.19,.87,.66,.98,1.23,.08,.44,.12,.9,.18,1.35l-.13,.04c-.21-.17-.39-.38-.62-.52-.44-.27-.89-.55-1.37-.74-.94-.38-1.46-1.09-1.76-2l.1-.17Z"/><path class="cls-7" d="M89.52,109.77c-.02,1.08,.4,2.02,.74,3.01,.22,.66,.02,1.35-.35,1.98-.69-.81-1.32-1.62-1.58-2.66-.12-.47,0-.9,.25-1.29,.24-.38,.54-.73,.81-1.09l.13,.05Z"/><path class="cls-7" d="M90.99,121c-.84-.23-1.71-.4-2.52-.71-.92-.36-1.34-1.29-1.19-2.4,.19,.06,.37,.1,.53,.18,.53,.27,1.04,.57,1.57,.82,.88,.4,1.43,1.05,1.69,1.96l-.09,.15Z"/><path class="cls-7" d="M89.57,114.91c-.48,0-.91,0-1.35,0-.63,0-.9-.29-.87-.92,.03-.59,.3-1.31,.64-1.78l1.57,2.7Z"/><path class="cls-7" d="M90.21,119.05l-2.11-.98,.04-.15c.56,0,1.12-.01,1.67,.01,.09,0,.22,.14,.24,.23,.07,.26,.1,.54,.15,.88Z"/></g><g class="cls-6"><path d="M38.32,73.99c.34,27.37,.34,58.07,0,85.44-.34-27.37-.34-58.07,0-85.44h0Z"/></g></g></g></g></g></g></svg>